<mxfile host="app.diagrams.net" modified="2024-05-17T03:06:40.793Z" agent="Mozilla/5.0 (Windows NT 10.0; Win64; x64) AppleWebKit/537.36 (KHTML, like Gecko) Chrome/124.0.0.0 Safari/537.36" version="24.4.3" etag="mbyT9sZ88Ou-cqERnNj7" type="github">
  <diagram name="Trang-1" id="ft2MlpwKEeKNA4G_h-uB">
    <mxGraphModel>
      <root>
        <mxCell id="0" />
        <mxCell id="1" parent="0" />
      </root>
    </mxGraphModel>
  </diagram>
</mxfile>
